<svg width="92" height="64" viewBox="0 0 92 64" fill="none" xmlns="http://www.w3.org/2000/svg">
<mask id="path-2-outside-1_2488_2543" maskUnits="userSpaceOnUse" x="20.5" y="6" width="52" height="52" fill="black">
<rect fill="white" x="20.5" y="6" width="52" height="52"/>
<path d="M70.5 32C70.5 45.2548 59.7548 56 46.5 56C33.2452 56 22.5 45.2548 22.5 32C22.5 18.7452 33.2452 8 46.5 8C59.7548 8 70.5 18.7452 70.5 32ZM34.5 32C34.5 38.6274 39.8726 44 46.5 44C53.1274 44 58.5 38.6274 58.5 32C58.5 25.3726 53.1274 20 46.5 20C39.8726 20 34.5 25.3726 34.5 32Z"/>
</mask>
<path d="M70.5 32C70.5 45.2548 59.7548 56 46.5 56C33.2452 56 22.5 45.2548 22.5 32C22.5 18.7452 33.2452 8 46.5 8C59.7548 8 70.5 18.7452 70.5 32ZM34.5 32C34.5 38.6274 39.8726 44 46.5 44C53.1274 44 58.5 38.6274 58.5 32C58.5 25.3726 53.1274 20 46.5 20C39.8726 20 34.5 25.3726 34.5 32Z" fill="#7AB5D9"/>
<path d="M70.5 32C70.5 45.2548 59.7548 56 46.5 56C33.2452 56 22.5 45.2548 22.5 32C22.5 18.7452 33.2452 8 46.5 8C59.7548 8 70.5 18.7452 70.5 32ZM34.5 32C34.5 38.6274 39.8726 44 46.5 44C53.1274 44 58.5 38.6274 58.5 32C58.5 25.3726 53.1274 20 46.5 20C39.8726 20 34.5 25.3726 34.5 32Z" stroke="white" stroke-width="4" mask="url(#path-2-outside-1_2488_2543)"/>
<mask id="path-3-outside-2_2488_2543" maskUnits="userSpaceOnUse" x="20.5" y="6" width="52" height="52" fill="black">
<rect fill="white" x="20.5" y="6" width="52" height="52"/>
<path d="M46.5 8C41.7532 8 37.1131 9.40758 33.1663 12.0447C29.2195 14.6819 26.1434 18.4302 24.3269 22.8156C22.5104 27.201 22.0351 32.0266 22.9612 36.6822C23.8872 41.3377 26.173 45.6141 29.5294 48.9706C32.8859 52.327 37.1623 54.6128 41.8178 55.5388C46.4734 56.4649 51.299 55.9896 55.6844 54.1731C60.0698 52.3566 63.8181 49.2805 66.4553 45.3337C69.0924 41.3869 70.5 36.7468 70.5 32H58.5C58.5 34.3734 57.7962 36.6935 56.4776 38.6668C55.1591 40.6402 53.2849 42.1783 51.0922 43.0866C48.8995 43.9948 46.4867 44.2324 44.1589 43.7694C41.8311 43.3064 39.6929 42.1635 38.0147 40.4853C36.3365 38.8071 35.1936 36.6689 34.7306 34.3411C34.2676 32.0133 34.5052 29.6005 35.4134 27.4078C36.3217 25.2151 37.8598 23.3409 39.8332 22.0224C41.8065 20.7038 44.1266 20 46.5 20V8Z"/>
</mask>
<path d="M46.5 8C41.7532 8 37.1131 9.40758 33.1663 12.0447C29.2195 14.6819 26.1434 18.4302 24.3269 22.8156C22.5104 27.201 22.0351 32.0266 22.9612 36.6822C23.8872 41.3377 26.173 45.6141 29.5294 48.9706C32.8859 52.327 37.1623 54.6128 41.8178 55.5388C46.4734 56.4649 51.299 55.9896 55.6844 54.1731C60.0698 52.3566 63.8181 49.2805 66.4553 45.3337C69.0924 41.3869 70.5 36.7468 70.5 32H58.5C58.5 34.3734 57.7962 36.6935 56.4776 38.6668C55.1591 40.6402 53.2849 42.1783 51.0922 43.0866C48.8995 43.9948 46.4867 44.2324 44.1589 43.7694C41.8311 43.3064 39.6929 42.1635 38.0147 40.4853C36.3365 38.8071 35.1936 36.6689 34.7306 34.3411C34.2676 32.0133 34.5052 29.6005 35.4134 27.4078C36.3217 25.2151 37.8598 23.3409 39.8332 22.0224C41.8065 20.7038 44.1266 20 46.5 20V8Z" fill="#7093D6"/>
<path d="M46.5 8C41.7532 8 37.1131 9.40758 33.1663 12.0447C29.2195 14.6819 26.1434 18.4302 24.3269 22.8156C22.5104 27.201 22.0351 32.0266 22.9612 36.6822C23.8872 41.3377 26.173 45.6141 29.5294 48.9706C32.8859 52.327 37.1623 54.6128 41.8178 55.5388C46.4734 56.4649 51.299 55.9896 55.6844 54.1731C60.0698 52.3566 63.8181 49.2805 66.4553 45.3337C69.0924 41.3869 70.5 36.7468 70.5 32H58.5C58.5 34.3734 57.7962 36.6935 56.4776 38.6668C55.1591 40.6402 53.2849 42.1783 51.0922 43.0866C48.8995 43.9948 46.4867 44.2324 44.1589 43.7694C41.8311 43.3064 39.6929 42.1635 38.0147 40.4853C36.3365 38.8071 35.1936 36.6689 34.7306 34.3411C34.2676 32.0133 34.5052 29.6005 35.4134 27.4078C36.3217 25.2151 37.8598 23.3409 39.8332 22.0224C41.8065 20.7038 44.1266 20 46.5 20V8Z" stroke="white" stroke-width="4" mask="url(#path-3-outside-2_2488_2543)"/>
<mask id="path-4-outside-3_2488_2543" maskUnits="userSpaceOnUse" x="20.5" y="6" width="28" height="50" fill="black">
<rect fill="white" x="20.5" y="6" width="28" height="50"/>
<path d="M46.5 8C41.1751 8 36.0015 9.77085 31.7935 13.0338C27.5854 16.2967 24.582 20.8664 23.256 26.0235C21.93 31.1806 22.3568 36.6323 24.469 41.5203C26.5813 46.4083 30.2591 50.455 34.9236 53.0235L40.7118 42.5117C38.3796 41.2275 36.5406 39.2041 35.4845 36.7602C34.4284 34.3162 34.215 31.5903 34.878 29.0118C35.541 26.4332 37.0427 24.1484 39.1467 22.5169C41.2507 20.8854 43.8376 20 46.5 20V8Z"/>
</mask>
<path d="M46.5 8C41.1751 8 36.0015 9.77085 31.7935 13.0338C27.5854 16.2967 24.582 20.8664 23.256 26.0235C21.93 31.1806 22.3568 36.6323 24.469 41.5203C26.5813 46.4083 30.2591 50.455 34.9236 53.0235L40.7118 42.5117C38.3796 41.2275 36.5406 39.2041 35.4845 36.7602C34.4284 34.3162 34.215 31.5903 34.878 29.0118C35.541 26.4332 37.0427 24.1484 39.1467 22.5169C41.2507 20.8854 43.8376 20 46.5 20V8Z" fill="#6971D5"/>
<path d="M46.5 8C41.1751 8 36.0015 9.77085 31.7935 13.0338C27.5854 16.2967 24.582 20.8664 23.256 26.0235C21.93 31.1806 22.3568 36.6323 24.469 41.5203C26.5813 46.4083 30.2591 50.455 34.9236 53.0235L40.7118 42.5117C38.3796 41.2275 36.5406 39.2041 35.4845 36.7602C34.4284 34.3162 34.215 31.5903 34.878 29.0118C35.541 26.4332 37.0427 24.1484 39.1467 22.5169C41.2507 20.8854 43.8376 20 46.5 20V8Z" stroke="white" stroke-width="4" mask="url(#path-4-outside-3_2488_2543)"/>
<mask id="path-5-outside-4_2488_2543" maskUnits="userSpaceOnUse" x="22.5" y="6" width="26" height="23" fill="black">
<rect fill="white" x="22.5" y="6" width="26" height="23"/>
<path d="M46.5 8C42.4537 8 38.4731 9.02303 34.9282 10.974C31.3833 12.925 28.3892 15.7405 26.2242 19.1589L36.3621 25.5795C37.4446 23.8703 38.9416 22.4625 40.7141 21.487C42.4865 20.5115 44.4768 20 46.5 20V8Z"/>
</mask>
<path d="M46.5 8C42.4537 8 38.4731 9.02303 34.9282 10.974C31.3833 12.925 28.3892 15.7405 26.2242 19.1589L36.3621 25.5795C37.4446 23.8703 38.9416 22.4625 40.7141 21.487C42.4865 20.5115 44.4768 20 46.5 20V8Z" fill="#9B6AD6"/>
<path d="M46.5 8C42.4537 8 38.4731 9.02303 34.9282 10.974C31.3833 12.925 28.3892 15.7405 26.2242 19.1589L36.3621 25.5795C37.4446 23.8703 38.9416 22.4625 40.7141 21.487C42.4865 20.5115 44.4768 20 46.5 20V8Z" stroke="white" stroke-width="4" mask="url(#path-5-outside-4_2488_2543)"/>
</svg>
