<svg width="92" height="64" viewBox="0 0 92 64" fill="none" xmlns="http://www.w3.org/2000/svg">
<path d="M82.9018 42.2245H67.5C67.5 40.0518 67.1692 37.9327 66.5271 35.9128C65.8276 33.7126 64.7632 31.6465 63.3816 29.7925C61.7234 27.5672 59.6348 25.6836 57.2467 24.2619C54.012 22.3362 50.3168 21.3061 46.4509 21.3061C42.585 21.3061 38.8898 22.3362 35.6551 24.2619C33.267 25.6836 31.1784 27.5672 29.5202 29.7925C28.1386 31.6465 27.0742 33.7126 26.3747 35.9128C25.7326 37.9327 25.4018 40.0518 25.4018 42.2245H10C10 38.4828 10.5735 34.8088 11.6885 31.3016C12.904 27.4782 14.7508 23.8934 17.1428 20.6834C20.0065 16.8404 23.611 13.5897 27.7403 11.1315C33.3501 7.79181 39.7777 6 46.4509 6C53.1241 6 59.5517 7.79181 65.1615 11.1315C69.2908 13.5897 72.8953 16.8404 75.759 20.6834C78.151 23.8934 79.9978 27.4782 81.2133 31.3016C82.3283 34.8088 82.9018 38.4828 82.9018 42.2245Z" fill="#FF7681" stroke="white" stroke-width="3.08036"/>
<path d="M75.759 20.6834L63.3816 29.7925C61.7234 27.5672 59.6348 25.6836 57.2467 24.2619C54.012 22.3362 50.3168 21.3061 46.4509 21.3061C42.585 21.3061 38.8898 22.3362 35.6551 24.2619C33.267 25.6836 31.1784 27.5672 29.5202 29.7925C28.1386 31.6465 27.0742 33.7126 26.3747 35.9128C25.7326 37.9327 25.4018 40.0518 25.4018 42.2245H10C10 38.4828 10.5735 34.8088 11.6885 31.3016C12.904 27.4782 14.7508 23.8934 17.1428 20.6834C20.0065 16.8404 23.611 13.5897 27.7403 11.1315C33.3501 7.79181 39.7777 6 46.4509 6C53.1241 6 59.5517 7.79181 65.1615 11.1315C69.2908 13.5897 72.8953 16.8404 75.759 20.6834Z" fill="#FFCB47" stroke="white" stroke-width="3.08036"/>
<path d="M46.4509 6V21.3061C42.585 21.3061 38.8898 22.3362 35.6551 24.2619C33.267 25.6836 31.1784 27.5672 29.5202 29.7925C28.1386 31.6465 27.0742 33.7126 26.3747 35.9128C25.7326 37.9327 25.4018 40.0518 25.4018 42.2245H10C10 38.4828 10.5735 34.8088 11.6885 31.3016C12.904 27.4782 14.7508 23.8934 17.1428 20.6834C20.0065 16.8404 23.611 13.5897 27.7403 11.1315C33.3501 7.79181 39.7777 6 46.4509 6Z" fill="#1BA758" stroke="white" stroke-width="3.08" stroke-linecap="round" stroke-linejoin="round"/>
<path d="M19.1029 56.2462C20.8787 56.2462 22.0625 55.3583 22.6544 53.5826H15.5515C16.1434 55.3583 17.3272 56.2462 19.1029 56.2462Z" fill="#1BA758"/>
<path d="M22.6544 50.919C22.6544 51.4094 22.2569 51.8069 21.7665 51.8069C21.2762 51.8069 20.8787 51.4094 20.8787 50.919C20.8787 50.4286 21.2762 50.0311 21.7665 50.0311C22.2569 50.0311 22.6544 50.4286 22.6544 50.919Z" fill="#1BA758"/>
<path d="M16.4393 51.8069C16.9297 51.8069 17.3272 51.4094 17.3272 50.919C17.3272 50.4286 16.9297 50.0311 16.4393 50.0311C15.949 50.0311 15.5515 50.4286 15.5515 50.919C15.5515 51.4094 15.949 51.8069 16.4393 51.8069Z" fill="#1BA758"/>
<path fill-rule="evenodd" clip-rule="evenodd" d="M19.1029 45.5918C23.0258 45.5918 26.2059 48.7719 26.2059 52.6947C26.2059 56.6176 23.0258 59.7977 19.1029 59.7977C15.1801 59.7977 12 56.6176 12 52.6947C12 48.7719 15.1801 45.5918 19.1029 45.5918ZM19.1029 47.3675C16.1608 47.3675 13.7757 49.7526 13.7757 52.6947C13.7757 55.6369 16.1608 58.0219 19.1029 58.0219C22.0451 58.0219 24.4301 55.6369 24.4301 52.6947C24.4301 49.7526 22.0451 47.3675 19.1029 47.3675Z" fill="#1BA758"/>
<path fill-rule="evenodd" clip-rule="evenodd" d="M46.5014 45.5918C50.4242 45.5918 53.6043 48.7719 53.6043 52.6947C53.6043 56.6176 50.4242 59.7977 46.5014 59.7977C42.5785 59.7977 39.3984 56.6176 39.3984 52.6947C39.3984 48.7719 42.5785 45.5918 46.5014 45.5918ZM46.5014 47.3675C43.5592 47.3675 41.1742 49.7526 41.1742 52.6947C41.1742 55.6369 43.5592 58.0219 46.5014 58.0219C49.4435 58.0219 51.8286 55.6369 51.8286 52.6947C51.8286 49.7526 49.4435 47.3675 46.5014 47.3675ZM50.0528 54.4705C50.0528 53.9801 49.6553 53.5826 49.165 53.5826H43.8378C43.3474 53.5826 42.9499 53.9801 42.9499 54.4705C42.9499 54.9608 43.3474 55.3583 43.8378 55.3583H49.165C49.6553 55.3583 50.0528 54.9608 50.0528 54.4705ZM43.8378 50.0311C44.3281 50.0311 44.7256 50.4286 44.7256 50.919C44.7256 51.4094 44.3281 51.8069 43.8378 51.8069C43.3474 51.8069 42.9499 51.4094 42.9499 50.919C42.9499 50.4286 43.3474 50.0311 43.8378 50.0311ZM50.0528 50.919C50.0528 50.4286 49.6553 50.0311 49.165 50.0311C48.6746 50.0311 48.2771 50.4286 48.2771 50.919C48.2771 51.4094 48.6746 51.8069 49.165 51.8069C49.6553 51.8069 50.0528 51.4094 50.0528 50.919Z" fill="#FFCB47"/>
<path d="M77.3735 55.1495C76.7598 53.513 75.6006 52.6947 73.8959 52.6947C72.1202 52.6947 70.9364 53.5826 70.3444 55.3583H77.4474L77.3735 55.1495Z" fill="#FF7681"/>
<path d="M72.1202 50.919C72.1202 51.4094 71.7227 51.8069 71.2323 51.8069C70.742 51.8069 70.3444 51.4094 70.3444 50.919C70.3444 50.4286 70.742 50.0311 71.2323 50.0311C71.7227 50.0311 72.1202 50.4286 72.1202 50.919Z" fill="#FF7681"/>
<path d="M76.5595 51.8069C77.0499 51.8069 77.4474 51.4094 77.4474 50.919C77.4474 50.4286 77.0499 50.0311 76.5595 50.0311C76.0692 50.0311 75.6716 50.4286 75.6716 50.919C75.6716 51.4094 76.0692 51.8069 76.5595 51.8069Z" fill="#FF7681"/>
<path fill-rule="evenodd" clip-rule="evenodd" d="M73.8959 45.5918C77.8188 45.5918 80.9989 48.7719 80.9989 52.6947C80.9989 56.6176 77.8188 59.7977 73.8959 59.7977C69.9731 59.7977 66.793 56.6176 66.793 52.6947C66.793 48.7719 69.9731 45.5918 73.8959 45.5918ZM73.8959 47.3675C70.9538 47.3675 68.5687 49.7526 68.5687 52.6947C68.5687 55.6369 70.9538 58.0219 73.8959 58.0219C76.838 58.0219 79.2231 55.6369 79.2231 52.6947C79.2231 49.7526 76.838 47.3675 73.8959 47.3675Z" fill="#FF7681"/>
</svg>
