<svg width="92" height="64" viewBox="0 0 92 64" fill="none" xmlns="http://www.w3.org/2000/svg">
<path d="M46.4994 18.7124C49.443 18.7124 51.8296 16.3153 51.8296 13.3569C51.8292 10.398 49.443 8 46.4994 8C43.556 8 41.1688 10.3981 41.1688 13.3569C41.1688 16.3151 43.556 18.7124 46.4994 18.7124ZM60.7768 33.9732L57.1754 26.5142C55.2126 22.435 53.8886 19.6359 49.979 19.6359L43.0202 19.6355C39.111 19.6355 37.7886 22.435 35.8258 26.5139L32.2231 33.9731C31.689 35.0744 32.1471 36.3949 33.2429 36.9329C34.3388 37.47 35.6645 37.0136 36.1996 35.9124L41.1797 26.2446V40.9828V53.5912C41.1797 54.9215 42.2525 56 43.576 56C44.8997 56 45.9722 54.9219 45.9722 53.5912V40.9828H47.0267V53.5912C47.0267 54.9215 48.0996 56 49.4237 56C50.7474 56 51.8199 54.9219 51.8199 53.5912V40.9828V26.2446L56.8004 35.9124C57.3348 37.0137 58.6622 37.47 59.7574 36.9329C60.8529 36.3942 61.3109 35.0741 60.7768 33.9732Z" fill="#7AB5D9"/>
<mask id="mask0_3009_9293" style="mask-type:alpha" maskUnits="userSpaceOnUse" x="32" y="8" width="29" height="48">
<path d="M46.4994 18.7124C49.443 18.7124 51.8296 16.3153 51.8296 13.3569C51.8292 10.398 49.443 8 46.4994 8C43.556 8 41.1688 10.3981 41.1688 13.3569C41.1688 16.3151 43.556 18.7124 46.4994 18.7124ZM60.7768 33.9732L57.1754 26.5142C55.2126 22.435 53.8886 19.6359 49.979 19.6359L43.0202 19.6355C39.111 19.6355 37.7886 22.435 35.8258 26.5139L32.2231 33.9731C31.689 35.0744 32.1471 36.3949 33.2429 36.9329C34.3388 37.47 35.6645 37.0136 36.1996 35.9124L41.1797 26.2446V40.9828V53.5912C41.1797 54.9215 42.2525 56 43.576 56C44.8997 56 45.9722 54.9219 45.9722 53.5912V40.9828H47.0267V53.5912C47.0267 54.9215 48.0996 56 49.4237 56C50.7474 56 51.8199 54.9219 51.8199 53.5912V40.9828V26.2446L56.8004 35.9124C57.3348 37.0137 58.6622 37.47 59.7574 36.9329C60.8529 36.3942 61.3109 35.0741 60.7768 33.9732Z" fill="#7AB5D9"/>
</mask>
<g mask="url(#mask0_3009_9293)">
<rect x="32" y="34" width="29" height="14" fill="#6971D5"/>
</g>
<mask id="mask1_3009_9293" style="mask-type:alpha" maskUnits="userSpaceOnUse" x="32" y="8" width="29" height="48">
<path d="M46.4994 18.7124C49.443 18.7124 51.8296 16.3153 51.8296 13.3569C51.8292 10.398 49.443 8 46.4994 8C43.556 8 41.1688 10.3981 41.1688 13.3569C41.1688 16.3151 43.556 18.7124 46.4994 18.7124ZM60.7768 33.9732L57.1754 26.5142C55.2126 22.435 53.8886 19.6359 49.979 19.6359L43.0202 19.6355C39.111 19.6355 37.7886 22.435 35.8258 26.5139L32.2231 33.9731C31.689 35.0744 32.1471 36.3949 33.2429 36.9329C34.3388 37.47 35.6645 37.0136 36.1996 35.9124L41.1797 26.2446V40.9828V53.5912C41.1797 54.9215 42.2525 56 43.576 56C44.8997 56 45.9722 54.9219 45.9722 53.5912V40.9828H47.0267V53.5912C47.0267 54.9215 48.0996 56 49.4237 56C50.7474 56 51.8199 54.9219 51.8199 53.5912V40.9828V26.2446L56.8004 35.9124C57.3348 37.0137 58.6622 37.47 59.7574 36.9329C60.8529 36.3942 61.3109 35.0741 60.7768 33.9732Z" fill="#7AB5D9"/>
</mask>
<g mask="url(#mask1_3009_9293)">
<rect x="32" y="22" width="29" height="12" fill="#7093D6"/>
</g>
<mask id="mask2_3009_9293" style="mask-type:alpha" maskUnits="userSpaceOnUse" x="32" y="8" width="29" height="48">
<path d="M46.4994 18.7124C49.443 18.7124 51.8296 16.3153 51.8296 13.3569C51.8292 10.398 49.443 8 46.4994 8C43.556 8 41.1688 10.3981 41.1688 13.3569C41.1688 16.3151 43.556 18.7124 46.4994 18.7124ZM60.7768 33.9732L57.1754 26.5142C55.2126 22.435 53.8886 19.6359 49.979 19.6359L43.0202 19.6355C39.111 19.6355 37.7886 22.435 35.8258 26.5139L32.2231 33.9731C31.689 35.0744 32.1471 36.3949 33.2429 36.9329C34.3388 37.47 35.6645 37.0136 36.1996 35.9124L41.1797 26.2446V40.9828V53.5912C41.1797 54.9215 42.2525 56 43.576 56C44.8997 56 45.9722 54.9219 45.9722 53.5912V40.9828H47.0267V53.5912C47.0267 54.9215 48.0996 56 49.4237 56C50.7474 56 51.8199 54.9219 51.8199 53.5912V40.9828V26.2446L56.8004 35.9124C57.3348 37.0137 58.6622 37.47 59.7574 36.9329C60.8529 36.3942 61.3109 35.0741 60.7768 33.9732Z" fill="#7AB5D9"/>
</mask>
<g mask="url(#mask2_3009_9293)">
<rect x="32" y="48" width="29" height="8" fill="#9B6AD6"/>
</g>
</svg>
