<svg width="92" height="64" viewBox="0 0 92 64" fill="none" xmlns="http://www.w3.org/2000/svg">
<path d="M74.5 30C74.5 26.8483 73.8792 23.7274 72.6731 20.8156C71.467 17.9038 69.6992 15.258 67.4706 13.0294C65.242 10.8008 62.5962 9.033 59.6844 7.82689C56.7726 6.62078 53.6517 6 50.5 6L50.5 30H74.5Z" fill="#7AB5D9"/>
<path fill-rule="evenodd" clip-rule="evenodd" d="M44.5 10.084C40.4584 10.4219 36.5566 11.78 33.1663 14.0452C29.2195 16.6824 26.1434 20.4307 24.3269 24.8161C22.5104 29.2015 22.0351 34.0271 22.9612 38.6827C23.8872 43.3382 26.173 47.6146 29.5294 50.9711C32.8859 54.3275 37.1623 56.6133 41.8178 57.5394C42.7071 57.7163 43.6026 57.842 44.5 57.9171V10.084ZM48.5 57.917C50.9573 57.7116 53.3815 57.1275 55.6844 56.1736C60.0698 54.3571 63.8181 51.281 66.4553 47.3342C69.0924 43.3874 70.5 38.7473 70.5 34.0005H48.5V57.917Z" fill="#7093D6"/>
<path fill-rule="evenodd" clip-rule="evenodd" d="M44.5 10.084C38.8673 10.5548 33.5565 13.0029 29.5294 17.03C25.0286 21.5309 22.5 27.6354 22.5 34.0006C22.5 40.3658 25.0286 46.4703 29.5294 50.9711C33.5565 54.9982 38.8673 57.4463 44.5 57.9171V10.084Z" fill="#6971D5"/>
</svg>
