<svg width="92" height="64" viewBox="0 0 92 64" fill="none" xmlns="http://www.w3.org/2000/svg">
<path d="M15 32H72.5" stroke="#EEEEEE" stroke-width="2" stroke-linecap="round"/>
<path d="M15 46H72.5" stroke="#EEEEEE" stroke-width="2" stroke-linecap="round"/>
<path d="M15 17H72.5" stroke="#EEEEEE" stroke-width="2" stroke-linecap="round"/>
<path d="M74.5 55.0006H14.5V10" stroke="#D8D8D8" stroke-width="2" stroke-linecap="round"/>
<path d="M18.5 49.5L31 36L36.5 41.5L54 24.5L60 30.5L74.5 15.5" stroke="#1B87E6" stroke-width="4" stroke-linecap="round" stroke-linejoin="round"/>
<path d="M9.82901 48.1772C9.40392 47.0436 8.60095 46.4768 7.42012 46.4768C6.19009 46.4768 5.37007 47.0918 4.96006 48.3218H9.88018L9.82901 48.1772Z" fill="#FF7681"/>
<path d="M6.19009 45.2467C6.19009 45.5864 5.91474 45.8617 5.57508 45.8617C5.23541 45.8617 4.96006 45.5864 4.96006 45.2467C4.96006 44.9071 5.23541 44.6317 5.57508 44.6317C5.91474 44.6317 6.19009 44.9071 6.19009 45.2467Z" fill="#FF7681"/>
<path d="M9.26517 45.8617C9.60483 45.8617 9.88018 45.5864 9.88018 45.2467C9.88018 44.9071 9.60483 44.6317 9.26517 44.6317C8.9255 44.6317 8.65015 44.9071 8.65015 45.2467C8.65015 45.5864 8.9255 45.8617 9.26517 45.8617Z" fill="#FF7681"/>
<path fill-rule="evenodd" clip-rule="evenodd" d="M7.42012 41.5566C10.1374 41.5566 12.3402 43.7595 12.3402 46.4768C12.3402 49.1941 10.1374 51.3969 7.42012 51.3969C4.70281 51.3969 2.5 49.1941 2.5 46.4768C2.5 43.7595 4.70281 41.5566 7.42012 41.5566ZM7.42012 42.7867C5.38214 42.7867 3.73003 44.4388 3.73003 46.4768C3.73003 48.5147 5.38214 50.1669 7.42012 50.1669C9.4581 50.1669 11.1102 48.5147 11.1102 46.4768C11.1102 44.4388 9.4581 42.7867 7.42012 42.7867Z" fill="#FF7681"/>
<path d="M7.42012 19.3802C8.65015 19.3802 9.47017 18.7652 9.88018 17.5351H4.96006C5.37007 18.7652 6.19009 19.3802 7.42012 19.3802Z" fill="#1BA758"/>
<path d="M9.88018 15.6901C9.88018 16.0298 9.60483 16.3051 9.26517 16.3051C8.9255 16.3051 8.65015 16.0298 8.65015 15.6901C8.65015 15.3504 8.9255 15.0751 9.26517 15.0751C9.60483 15.0751 9.88018 15.3504 9.88018 15.6901Z" fill="#1BA758"/>
<path d="M5.57508 16.3051C5.91474 16.3051 6.19009 16.0298 6.19009 15.6901C6.19009 15.3504 5.91474 15.0751 5.57508 15.0751C5.23541 15.0751 4.96006 15.3504 4.96006 15.6901C4.96006 16.0298 5.23541 16.3051 5.57508 16.3051Z" fill="#1BA758"/>
<path fill-rule="evenodd" clip-rule="evenodd" d="M7.42012 12C10.1374 12 12.3402 14.2028 12.3402 16.9201C12.3402 19.6374 10.1374 21.8402 7.42012 21.8402C4.70281 21.8402 2.5 19.6374 2.5 16.9201C2.5 14.2028 4.70281 12 7.42012 12ZM7.42012 13.23C5.38214 13.23 3.73003 14.8821 3.73003 16.9201C3.73003 18.9581 5.38214 20.6102 7.42012 20.6102C9.4581 20.6102 11.1102 18.9581 11.1102 16.9201C11.1102 14.8821 9.4581 13.23 7.42012 13.23Z" fill="#1BA758"/>
<path fill-rule="evenodd" clip-rule="evenodd" d="M7.42012 27C10.1374 27 12.3402 29.2028 12.3402 31.9201C12.3402 34.6374 10.1374 36.8402 7.42012 36.8402C4.70281 36.8402 2.5 34.6374 2.5 31.9201C2.5 29.2028 4.70281 27 7.42012 27ZM7.42012 28.23C5.38214 28.23 3.73003 29.8821 3.73003 31.9201C3.73003 33.9581 5.38214 35.6102 7.42012 35.6102C9.4581 35.6102 11.1102 33.9581 11.1102 31.9201C11.1102 29.8821 9.4581 28.23 7.42012 28.23ZM9.88018 33.1502C9.88018 32.8105 9.60483 32.5351 9.26517 32.5351H5.57508C5.23541 32.5351 4.96006 32.8105 4.96006 33.1502C4.96006 33.4898 5.23541 33.7652 5.57508 33.7652H9.26517C9.60483 33.7652 9.88018 33.4898 9.88018 33.1502ZM5.57508 30.0751C5.91474 30.0751 6.19009 30.3504 6.19009 30.6901C6.19009 31.0298 5.91474 31.3051 5.57508 31.3051C5.23541 31.3051 4.96006 31.0298 4.96006 30.6901C4.96006 30.3504 5.23541 30.0751 5.57508 30.0751ZM9.88018 30.6901C9.88018 30.3504 9.60483 30.0751 9.26517 30.0751C8.9255 30.0751 8.65015 30.3504 8.65015 30.6901C8.65015 31.0298 8.9255 31.3051 9.26517 31.3051C9.60483 31.3051 9.88018 31.0298 9.88018 30.6901Z" fill="#FFCB47"/>
</svg>
