<svg width="92" height="64" viewBox="0 0 92 64" fill="none" xmlns="http://www.w3.org/2000/svg">
<g clip-path="url(#clip0_2488_2449)">
<mask id="path-2-outside-1_2488_2449" maskUnits="userSpaceOnUse" x="23.5" y="9" width="46" height="46" fill="black">
<rect fill="white" x="23.5" y="9" width="46" height="46"/>
<path d="M46.5 53C51.3585 53 56.0666 51.3154 59.8223 48.2332C63.5779 45.151 66.1487 40.862 67.0965 36.0969C68.0443 31.3318 67.3106 26.3854 65.0203 22.1007C62.7301 17.8159 59.025 14.4578 54.5364 12.5985C50.0477 10.7393 45.0533 10.4939 40.404 11.9043C35.7548 13.3146 31.7384 16.2934 29.0391 20.333C26.3399 24.3727 25.1249 29.2233 25.6011 34.0584C26.0773 38.8934 28.2153 43.4138 31.6508 46.8492L39.0754 39.4246C37.3577 37.7069 36.2887 35.4467 36.0506 33.0292C35.8125 30.6116 36.42 28.1863 37.7696 26.1665C39.1192 24.1467 41.1274 22.6573 43.452 21.9521C45.7766 21.247 48.2739 21.3696 50.5182 22.2993C52.7625 23.2289 54.615 24.9079 55.7602 27.0503C56.9053 29.1927 57.2722 31.6659 56.7982 34.0484C56.3243 36.431 55.0389 38.5755 53.1611 40.1166C51.2833 41.6577 48.9292 42.5 46.5 42.5V53Z"/>
</mask>
<path d="M46.5 53C51.3585 53 56.0666 51.3154 59.8223 48.2332C63.5779 45.151 66.1487 40.862 67.0965 36.0969C68.0443 31.3318 67.3106 26.3854 65.0203 22.1007C62.7301 17.8159 59.025 14.4578 54.5364 12.5985C50.0477 10.7393 45.0533 10.4939 40.404 11.9043C35.7548 13.3146 31.7384 16.2934 29.0391 20.333C26.3399 24.3727 25.1249 29.2233 25.6011 34.0584C26.0773 38.8934 28.2153 43.4138 31.6508 46.8492L39.0754 39.4246C37.3577 37.7069 36.2887 35.4467 36.0506 33.0292C35.8125 30.6116 36.42 28.1863 37.7696 26.1665C39.1192 24.1467 41.1274 22.6573 43.452 21.9521C45.7766 21.247 48.2739 21.3696 50.5182 22.2993C52.7625 23.2289 54.615 24.9079 55.7602 27.0503C56.9053 29.1927 57.2722 31.6659 56.7982 34.0484C56.3243 36.431 55.0389 38.5755 53.1611 40.1166C51.2833 41.6577 48.9292 42.5 46.5 42.5V53Z" fill="#1BA758"/>
<path d="M46.5 53C51.3585 53 56.0666 51.3154 59.8223 48.2332C63.5779 45.151 66.1487 40.862 67.0965 36.0969C68.0443 31.3318 67.3106 26.3854 65.0203 22.1007C62.7301 17.8159 59.025 14.4578 54.5364 12.5985C50.0477 10.7393 45.0533 10.4939 40.404 11.9043C35.7548 13.3146 31.7384 16.2934 29.0391 20.333C26.3399 24.3727 25.1249 29.2233 25.6011 34.0584C26.0773 38.8934 28.2153 43.4138 31.6508 46.8492L39.0754 39.4246C37.3577 37.7069 36.2887 35.4467 36.0506 33.0292C35.8125 30.6116 36.42 28.1863 37.7696 26.1665C39.1192 24.1467 41.1274 22.6573 43.452 21.9521C45.7766 21.247 48.2739 21.3696 50.5182 22.2993C52.7625 23.2289 54.615 24.9079 55.7602 27.0503C56.9053 29.1927 57.2722 31.6659 56.7982 34.0484C56.3243 36.431 55.0389 38.5755 53.1611 40.1166C51.2833 41.6577 48.9292 42.5 46.5 42.5V53Z" stroke="white" stroke-width="3.5" mask="url(#path-2-outside-1_2488_2449)"/>
<mask id="path-3-outside-2_2488_2449" maskUnits="userSpaceOnUse" x="23.5" y="9" width="25" height="46" fill="black">
<rect fill="white" x="23.5" y="9" width="25" height="46"/>
<path d="M46.5 11C43.7422 11 41.0115 11.5432 38.4636 12.5985C35.9158 13.6539 33.6008 15.2007 31.6508 17.1508C29.7007 19.1008 28.1539 21.4158 27.0985 23.9636C26.0432 26.5115 25.5 29.2422 25.5 32C25.5 34.7578 26.0432 37.4885 27.0985 40.0364C28.1539 42.5842 29.7007 44.8992 31.6508 46.8492C33.6008 48.7993 35.9158 50.3461 38.4636 51.4015C41.0115 52.4568 43.7422 53 46.5 53L46.5 42.5C45.1211 42.5 43.7557 42.2284 42.4818 41.7007C41.2079 41.1731 40.0504 40.3996 39.0754 39.4246C38.1004 38.4496 37.3269 37.2921 36.7993 36.0182C36.2716 34.7443 36 33.3789 36 32C36 30.6211 36.2716 29.2557 36.7993 27.9818C37.3269 26.7079 38.1004 25.5504 39.0754 24.5754C40.0504 23.6004 41.2079 22.8269 42.4818 22.2993C43.7557 21.7716 45.1211 21.5 46.5 21.5V11Z"/>
</mask>
<path d="M46.5 11C43.7422 11 41.0115 11.5432 38.4636 12.5985C35.9158 13.6539 33.6008 15.2007 31.6508 17.1508C29.7007 19.1008 28.1539 21.4158 27.0985 23.9636C26.0432 26.5115 25.5 29.2422 25.5 32C25.5 34.7578 26.0432 37.4885 27.0985 40.0364C28.1539 42.5842 29.7007 44.8992 31.6508 46.8492C33.6008 48.7993 35.9158 50.3461 38.4636 51.4015C41.0115 52.4568 43.7422 53 46.5 53L46.5 42.5C45.1211 42.5 43.7557 42.2284 42.4818 41.7007C41.2079 41.1731 40.0504 40.3996 39.0754 39.4246C38.1004 38.4496 37.3269 37.2921 36.7993 36.0182C36.2716 34.7443 36 33.3789 36 32C36 30.6211 36.2716 29.2557 36.7993 27.9818C37.3269 26.7079 38.1004 25.5504 39.0754 24.5754C40.0504 23.6004 41.2079 22.8269 42.4818 22.2993C43.7557 21.7716 45.1211 21.5 46.5 21.5V11Z" fill="#FFCB47"/>
<path d="M46.5 11C43.7422 11 41.0115 11.5432 38.4636 12.5985C35.9158 13.6539 33.6008 15.2007 31.6508 17.1508C29.7007 19.1008 28.1539 21.4158 27.0985 23.9636C26.0432 26.5115 25.5 29.2422 25.5 32C25.5 34.7578 26.0432 37.4885 27.0985 40.0364C28.1539 42.5842 29.7007 44.8992 31.6508 46.8492C33.6008 48.7993 35.9158 50.3461 38.4636 51.4015C41.0115 52.4568 43.7422 53 46.5 53L46.5 42.5C45.1211 42.5 43.7557 42.2284 42.4818 41.7007C41.2079 41.1731 40.0504 40.3996 39.0754 39.4246C38.1004 38.4496 37.3269 37.2921 36.7993 36.0182C36.2716 34.7443 36 33.3789 36 32C36 30.6211 36.2716 29.2557 36.7993 27.9818C37.3269 26.7079 38.1004 25.5504 39.0754 24.5754C40.0504 23.6004 41.2079 22.8269 42.4818 22.2993C43.7557 21.7716 45.1211 21.5 46.5 21.5V11Z" stroke="white" stroke-width="3.5" mask="url(#path-3-outside-2_2488_2449)"/>
<mask id="path-4-outside-3_2488_2449" maskUnits="userSpaceOnUse" x="23.5" y="9" width="25" height="25" fill="black">
<rect fill="white" x="23.5" y="9" width="25" height="25"/>
<path d="M46.5 11C43.7422 11 41.0115 11.5432 38.4636 12.5985C35.9158 13.6539 33.6008 15.2007 31.6508 17.1508C29.7007 19.1008 28.1539 21.4158 27.0985 23.9636C26.0432 26.5115 25.5 29.2422 25.5 32L36 32C36 30.6211 36.2716 29.2557 36.7993 27.9818C37.3269 26.7079 38.1004 25.5504 39.0754 24.5754C40.0504 23.6004 41.2079 22.8269 42.4818 22.2993C43.7557 21.7716 45.1211 21.5 46.5 21.5V11Z"/>
</mask>
<path d="M46.5 11C43.7422 11 41.0115 11.5432 38.4636 12.5985C35.9158 13.6539 33.6008 15.2007 31.6508 17.1508C29.7007 19.1008 28.1539 21.4158 27.0985 23.9636C26.0432 26.5115 25.5 29.2422 25.5 32L36 32C36 30.6211 36.2716 29.2557 36.7993 27.9818C37.3269 26.7079 38.1004 25.5504 39.0754 24.5754C40.0504 23.6004 41.2079 22.8269 42.4818 22.2993C43.7557 21.7716 45.1211 21.5 46.5 21.5V11Z" fill="#FF7681"/>
<path d="M46.5 11C43.7422 11 41.0115 11.5432 38.4636 12.5985C35.9158 13.6539 33.6008 15.2007 31.6508 17.1508C29.7007 19.1008 28.1539 21.4158 27.0985 23.9636C26.0432 26.5115 25.5 29.2422 25.5 32L36 32C36 30.6211 36.2716 29.2557 36.7993 27.9818C37.3269 26.7079 38.1004 25.5504 39.0754 24.5754C40.0504 23.6004 41.2079 22.8269 42.4818 22.2993C43.7557 21.7716 45.1211 21.5 46.5 21.5V11Z" stroke="white" stroke-width="3.5" mask="url(#path-4-outside-3_2488_2449)"/>
<path d="M25.0805 15.5577C24.4668 13.9212 23.3076 13.1029 21.6029 13.1029C19.8272 13.1029 18.6434 13.9908 18.0515 15.7665H25.1544L25.0805 15.5577Z" fill="#FF7681"/>
<path d="M19.8272 11.3272C19.8272 11.8176 19.4297 12.2151 18.9393 12.2151C18.449 12.2151 18.0515 11.8176 18.0515 11.3272C18.0515 10.8369 18.449 10.4393 18.9393 10.4393C19.4297 10.4393 19.8272 10.8369 19.8272 11.3272Z" fill="#FF7681"/>
<path d="M24.2665 12.2151C24.7569 12.2151 25.1544 11.8176 25.1544 11.3272C25.1544 10.8369 24.7569 10.4393 24.2665 10.4393C23.7762 10.4393 23.3787 10.8369 23.3787 11.3272C23.3787 11.8176 23.7762 12.2151 24.2665 12.2151Z" fill="#FF7681"/>
<path fill-rule="evenodd" clip-rule="evenodd" d="M21.6029 6C25.5258 6 28.7059 9.18009 28.7059 13.1029C28.7059 17.0258 25.5258 20.2059 21.6029 20.2059C17.6801 20.2059 14.5 17.0258 14.5 13.1029C14.5 9.18009 17.6801 6 21.6029 6ZM21.6029 7.77574C18.6608 7.77574 16.2757 10.1608 16.2757 13.1029C16.2757 16.0451 18.6608 18.4301 21.6029 18.4301C24.5451 18.4301 26.9301 16.0451 26.9301 13.1029C26.9301 10.1608 24.5451 7.77574 21.6029 7.77574Z" fill="#FF7681"/>
<path d="M76.6029 35.6544C78.3787 35.6544 79.5625 34.7665 80.1544 32.9908H73.0515C73.6434 34.7665 74.8272 35.6544 76.6029 35.6544Z" fill="#1BA758"/>
<path d="M80.1544 30.3272C80.1544 30.8176 79.7569 31.2151 79.2665 31.2151C78.7762 31.2151 78.3787 30.8176 78.3787 30.3272C78.3787 29.8369 78.7762 29.4393 79.2665 29.4393C79.7569 29.4393 80.1544 29.8369 80.1544 30.3272Z" fill="#1BA758"/>
<path d="M73.9393 31.2151C74.4297 31.2151 74.8272 30.8176 74.8272 30.3272C74.8272 29.8369 74.4297 29.4393 73.9393 29.4393C73.449 29.4393 73.0515 29.8369 73.0515 30.3272C73.0515 30.8176 73.449 31.2151 73.9393 31.2151Z" fill="#1BA758"/>
<path fill-rule="evenodd" clip-rule="evenodd" d="M76.6029 25C80.5258 25 83.7059 28.1801 83.7059 32.1029C83.7059 36.0258 80.5258 39.2059 76.6029 39.2059C72.6801 39.2059 69.5 36.0258 69.5 32.1029C69.5 28.1801 72.6801 25 76.6029 25ZM76.6029 26.7757C73.6608 26.7757 71.2757 29.1608 71.2757 32.1029C71.2757 35.0451 73.6608 37.4301 76.6029 37.4301C79.5451 37.4301 81.9301 35.0451 81.9301 32.1029C81.9301 29.1608 79.5451 26.7757 76.6029 26.7757Z" fill="#1BA758"/>
<path fill-rule="evenodd" clip-rule="evenodd" d="M21.6029 44C25.5258 44 28.7059 47.1801 28.7059 51.1029C28.7059 55.0258 25.5258 58.2059 21.6029 58.2059C17.6801 58.2059 14.5 55.0258 14.5 51.1029C14.5 47.1801 17.6801 44 21.6029 44ZM21.6029 45.7757C18.6608 45.7757 16.2757 48.1608 16.2757 51.1029C16.2757 54.0451 18.6608 56.4301 21.6029 56.4301C24.5451 56.4301 26.9301 54.0451 26.9301 51.1029C26.9301 48.1608 24.5451 45.7757 21.6029 45.7757ZM25.1544 52.8787C25.1544 52.3883 24.7569 51.9908 24.2665 51.9908H18.9393C18.449 51.9908 18.0515 52.3883 18.0515 52.8787C18.0515 53.369 18.449 53.7665 18.9393 53.7665H24.2665C24.7569 53.7665 25.1544 53.369 25.1544 52.8787ZM18.9393 48.4393C19.4297 48.4393 19.8272 48.8369 19.8272 49.3272C19.8272 49.8176 19.4297 50.2151 18.9393 50.2151C18.449 50.2151 18.0515 49.8176 18.0515 49.3272C18.0515 48.8369 18.449 48.4393 18.9393 48.4393ZM25.1544 49.3272C25.1544 48.8369 24.7569 48.4393 24.2665 48.4393C23.7762 48.4393 23.3787 48.8369 23.3787 49.3272C23.3787 49.8176 23.7762 50.2151 24.2665 50.2151C24.7569 50.2151 25.1544 49.8176 25.1544 49.3272Z" fill="#FFCB47"/>
</g>
<defs>
<clipPath id="clip0_2488_2449">
<rect width="89" height="52" fill="white" transform="translate(1.5 6)"/>
</clipPath>
</defs>
</svg>
