<svg width="92" height="64" viewBox="0 0 92 64" fill="none" xmlns="http://www.w3.org/2000/svg">
<path d="M83.4018 45.2245H68C68 43.0518 67.6692 40.9327 67.0271 38.9128C66.3276 36.7126 65.2632 34.6465 63.8816 32.7925C62.2234 30.5672 60.1348 28.6836 57.7467 27.2619C54.512 25.3362 50.8168 24.3061 46.9509 24.3061C43.085 24.3061 39.3898 25.3362 36.1551 27.2619C33.767 28.6836 31.6784 30.5672 30.0202 32.7925C28.6386 34.6465 27.5742 36.7126 26.8747 38.9128C26.2326 40.9327 25.9018 43.0518 25.9018 45.2245H10.5C10.5 41.4828 11.0735 37.8088 12.1885 34.3016C13.404 30.4782 15.2508 26.8934 17.6428 23.6834C20.5065 19.8404 24.111 16.5897 28.2403 14.1315C33.8501 10.7918 40.2777 9 46.9509 9C53.6241 9 60.0517 10.7918 65.6615 14.1315C69.7908 16.5897 73.3953 19.8404 76.259 23.6834C78.651 26.8934 80.4978 30.4782 81.7133 34.3016C82.8283 37.8088 83.4018 41.4828 83.4018 45.2245Z" fill="#C16FD9" stroke="white" stroke-width="3.08036"/>
<path d="M76.259 23.6834L63.8816 32.7925C62.2234 30.5672 60.1348 28.6836 57.7467 27.2619C54.512 25.3362 50.8168 24.3061 46.9509 24.3061C43.085 24.3061 39.3898 25.3362 36.1551 27.2619C33.767 28.6836 31.6784 30.5672 30.0202 32.7925C28.6386 34.6465 27.5742 36.7126 26.8747 38.9128C26.2326 40.9327 25.9018 43.0518 25.9018 45.2245H10.5C10.5 41.4828 11.0735 37.8088 12.1885 34.3016C13.404 30.4782 15.2508 26.8934 17.6428 23.6834C20.5065 19.8404 24.111 16.5897 28.2403 14.1315C33.8501 10.7918 40.2777 9 46.9509 9C53.6241 9 60.0517 10.7918 65.6615 14.1315C69.7908 16.5897 73.3953 19.8404 76.259 23.6834Z" fill="#7E6AD9" stroke="white" stroke-width="3.08036"/>
<path d="M46.9509 9V24.3061C43.085 24.3061 39.3898 25.3362 36.1551 27.2619C33.767 28.6836 31.6784 30.5672 30.0202 32.7925C28.6386 34.6465 27.5742 36.7126 26.8747 38.9128C26.2326 40.9327 25.9018 43.0518 25.9018 45.2245H10.5C10.5 41.4828 11.0735 37.8088 12.1885 34.3016C13.404 30.4782 15.2508 26.8934 17.6428 23.6834C20.5065 19.8404 24.111 16.5897 28.2403 14.1315C33.8501 10.7918 40.2777 9 46.9509 9Z" fill="#6D93D9" stroke="white" stroke-width="3.08" stroke-linecap="round" stroke-linejoin="round"/>
<path fill-rule="evenodd" clip-rule="evenodd" d="M25.9832 45.2423H10.5814C10.5814 41.5007 11.1549 37.8266 12.2699 34.3194C13.4854 30.496 15.3322 26.9112 17.7242 23.7012L30.1016 32.8103C28.72 34.6643 27.6556 36.7304 26.9561 38.9306C26.314 40.9505 25.9832 43.0696 25.9832 45.2423Z" fill="#73B5DA"/>
<path d="M10.5814 45.2423V46.7825H9.0412V45.2423H10.5814ZM25.9832 45.2423H27.5233V46.7825H25.9832V45.2423ZM12.2699 34.3194L13.7377 34.786L12.2699 34.3194ZM17.7242 23.7012L16.4892 22.7809L17.404 21.5532L18.6371 22.4607L17.7242 23.7012ZM30.1016 32.8103L31.0145 31.5698L32.2624 32.4882L31.3366 33.7306L30.1016 32.8103ZM26.9561 38.9306L25.4883 38.464L26.9561 38.9306ZM10.5814 43.7021H25.9832V46.7825H10.5814V43.7021ZM13.7377 34.786C12.6707 38.142 12.1216 41.6586 12.1216 45.2423H9.0412C9.0412 41.3427 9.639 37.5112 10.8021 33.8528L13.7377 34.786ZM18.9592 24.6215C16.6685 27.6954 14.9009 31.1272 13.7377 34.786L10.8021 33.8528C12.0699 29.8649 13.9958 26.1269 16.4892 22.7809L18.9592 24.6215ZM18.6371 22.4607L31.0145 31.5698L29.1886 34.0507L16.8113 24.9416L18.6371 22.4607ZM25.4883 38.464C26.2402 36.099 27.3838 33.8798 28.8666 31.89L31.3366 33.7306C30.0561 35.4488 29.071 37.3619 28.4239 39.3973L25.4883 38.464ZM24.443 45.2423C24.443 42.9123 24.7979 40.6357 25.4883 38.464L28.4239 39.3973C27.83 41.2653 27.5233 43.227 27.5233 45.2423H24.443Z" fill="white"/>
</svg>
