<svg width="64" height="48" viewBox="0 0 64 48" fill="none" xmlns="http://www.w3.org/2000/svg">
  <defs>
    <linearGradient id="cardBg" x1="32" y1="8" x2="32" y2="40" gradientUnits="userSpaceOnUse">
      <stop offset="0%" stop-color="#FFFFFF"/>
      <stop offset="100%" stop-color="#F7FAFC"/>
    </linearGradient>
    <linearGradient id="numberGlow" x1="32" y1="18" x2="32" y2="30" gradientUnits="userSpaceOnUse">
      <stop offset="0%" stop-color="#1B87E6"/>
      <stop offset="100%" stop-color="#1570C9"/>
    </linearGradient>
  </defs>
  
  <!-- Main card with shadow effect -->
  <rect x="10" y="8" width="44" height="32" rx="5" fill="url(#cardBg)" stroke="#E2E8F0" stroke-width="1.5"/>
  <rect x="10" y="8" width="44" height="32" rx="5" fill="#1B87E6" opacity="0.02"/>
  
  <!-- Highlight accent bar -->
  <rect x="10" y="8" width="44" height="3" rx="5" fill="#1B87E6" opacity="0.15"/>
  
  <!-- Large number -->
  <text x="32" y="26" font-family="-apple-system, BlinkMacSystemFont, 'Segoe UI', sans-serif" font-size="20" font-weight="700" fill="url(#numberGlow)" text-anchor="middle" dominant-baseline="middle">
    42
  </text>
  
  <!-- Metric indicator dots -->
  <circle cx="18" cy="35" r="1.2" fill="#1B87E6" opacity="0.4"/>
  <circle cx="23" cy="35" r="1.2" fill="#1B87E6" opacity="0.3"/>
  <circle cx="28" cy="35" r="1.2" fill="#1B87E6" opacity="0.25"/>
  
  <!-- Trend sparkle top-right -->
  <path d="M48 14 L49.5 14.5 L49 16 L49.5 17.5 L48 18 L46.5 17.5 L47 16 L46.5 14.5 Z" fill="#6971D5" opacity="0.5"/>
  
  <!-- Mini chart bars bottom-right -->
  <rect x="42" y="33" width="1.5" height="3" rx="0.75" fill="#7AB5D9" opacity="0.5"/>
  <rect x="45" y="31" width="1.5" height="5" rx="0.75" fill="#6971D5" opacity="0.5"/>
  <rect x="48" y="29" width="1.5" height="7" rx="0.75" fill="#9B6AD6" opacity="0.5"/>
</svg>
