<svg width="92" height="64" viewBox="0 0 92 64" fill="none" xmlns="http://www.w3.org/2000/svg">
<rect x="16.5" y="38" width="10" height="16" fill="#FFCB47"/>
<rect x="28.5" y="27" width="10" height="27" fill="#FF7681"/>
<rect x="53.5" y="34" width="10" height="20" fill="#67B7DC"/>
<rect x="65.5" y="20" width="10" height="34" fill="#6771DC"/>
<path d="M81 55H11V9.99937" stroke="#D8D8D8" stroke-width="2" stroke-linecap="round"/>
<path d="M22.864 20L22.348 18.08H19.6L19.084 20H17.44L20.02 11.708H21.976L24.544 20H22.864ZM19.912 16.88H22.024L20.968 12.92L19.912 16.88Z" fill="#545E6B"/>
<path d="M59.8603 15.608C60.4283 15.712 60.8843 15.916 61.2283 16.22C61.5803 16.524 61.7563 16.988 61.7563 17.612C61.7563 18.476 61.4523 19.092 60.8443 19.46C60.2363 19.82 59.3843 20 58.2883 20H55.7923V11.708H57.9643C60.2523 11.708 61.3963 12.412 61.3963 13.82C61.3963 14.308 61.2483 14.708 60.9523 15.02C60.6563 15.324 60.2923 15.52 59.8603 15.608ZM57.3763 12.872V15.116H58.3483C58.7883 15.116 59.1363 15.02 59.3923 14.828C59.6483 14.628 59.7763 14.336 59.7763 13.952C59.7763 13.552 59.6403 13.272 59.3683 13.112C59.1043 12.952 58.6883 12.872 58.1203 12.872H57.3763ZM58.3003 18.812C58.8843 18.812 59.3283 18.724 59.6323 18.548C59.9443 18.372 60.1003 18.04 60.1003 17.552C60.1003 17.08 59.9523 16.74 59.6563 16.532C59.3683 16.324 58.9723 16.22 58.4683 16.22H57.3763V18.812H58.3003Z" fill="#545E6B"/>
</svg>
