<svg width="92" height="64" viewBox="0 0 92 64" fill="none" xmlns="http://www.w3.org/2000/svg">
<rect x="29" y="7" width="52" height="8" fill="#8DC3F2"/>
<rect x="11" y="23" width="7" height="34" fill="#8DC3F2"/>
<rect x="20" y="23" width="7" height="10" fill="#9B9B9B"/>
<rect x="20" y="35" width="7" height="10" fill="#9B9B9B"/>
<rect x="20" y="47" width="7" height="10" fill="#9B9B9B"/>
<rect x="29" y="16" width="16" height="6" fill="#9B9B9B"/>
<rect x="47" y="16" width="16" height="6" fill="#9B9B9B"/>
<rect x="65" y="16" width="16" height="6" fill="#9B9B9B"/>
<rect x="29" y="47" width="16" height="10" fill="#EEEEEE"/>
<rect x="47" y="47" width="16" height="10" fill="#EEEEEE"/>
<rect x="65" y="47" width="16" height="10" fill="#EEEEEE"/>
<rect x="29" y="35" width="16" height="10" fill="#EEEEEE"/>
<rect x="47" y="35" width="16" height="10" fill="#EEEEEE"/>
<rect x="65" y="35" width="16" height="10" fill="#EEEEEE"/>
<rect x="29" y="23" width="16" height="10" fill="#EEEEEE"/>
<rect x="47" y="23" width="16" height="10" fill="#EEEEEE"/>
<rect x="65" y="23" width="16" height="10" fill="#EEEEEE"/>
</svg>
