<svg width="92" height="64" viewBox="0 0 92 64" fill="none" xmlns="http://www.w3.org/2000/svg">
<path d="M61.8157 12.9829L62.0415 13.0252L62.2631 12.9648L83 7.30925V50.2688L61.952 56.9659L30.2137 50.0231L29.9449 49.9643L29.6838 50.0513L10 56.6126V12.7543L30.0477 7.02638L61.8157 12.9829Z" fill="#F5F5F5" stroke="#D8D8D8" stroke-width="2"/>
<path d="M30 8V50" stroke="#D8D8D8" stroke-width="2" stroke-linecap="square"/>
<path d="M62 13L62 56" stroke="#D8D8D8" stroke-width="2" stroke-linecap="square"/>
<path fill-rule="evenodd" clip-rule="evenodd" d="M55 53.5714C55 53.5714 65 40.5228 65 35C65 29.4772 60.5228 25 55 25C49.4772 25 45 29.4772 45 35C45 40.5228 55 53.5714 55 53.5714ZM55 39.2857C57.3669 39.2857 59.2857 37.3669 59.2857 35C59.2857 32.6331 57.3669 30.7143 55 30.7143C52.6331 30.7143 50.7143 32.6331 50.7143 35C50.7143 37.3669 52.6331 39.2857 55 39.2857Z" fill="#6971D5"/>
<path fill-rule="evenodd" clip-rule="evenodd" d="M39.9 27.0003C39.9 27.0003 43.8 21.9113 43.8 19.7574C43.8 17.6035 42.0539 15.8574 39.9 15.8574C37.7461 15.8574 36 17.6035 36 19.7574C36 21.9113 39.9 27.0003 39.9 27.0003ZM39.9006 21.4279C40.8237 21.4279 41.5721 20.6796 41.5721 19.7565C41.5721 18.8334 40.8237 18.0851 39.9006 18.0851C38.9775 18.0851 38.2292 18.8334 38.2292 19.7565C38.2292 20.6796 38.9775 21.4279 39.9006 21.4279Z" fill="#7AB5D9"/>
<path fill-rule="evenodd" clip-rule="evenodd" d="M20.05 40.4286C20.05 40.4286 25.1 33.839 25.1 31.05C25.1 28.261 22.839 26 20.05 26C17.261 26 15 28.261 15 31.05C15 33.839 20.05 40.4286 20.05 40.4286ZM20.0493 33.2136C21.2446 33.2136 22.2136 32.2446 22.2136 31.0493C22.2136 29.854 21.2446 28.885 20.0493 28.885C18.854 28.885 17.885 29.854 17.885 31.0493C17.885 32.2446 18.854 33.2136 20.0493 33.2136Z" fill="#9B6AD6"/>
</svg>
