<svg width="92" height="64" viewBox="0 0 92 64" fill="none" xmlns="http://www.w3.org/2000/svg">
<rect x="19.8" y="36.8" width="22.4" height="12.4" rx="1.2" stroke="#1B87E6" stroke-width="1.6"/>
<rect x="51.8" y="18.8" width="22.4" height="12.4" rx="1.2" stroke="#1B87E6" stroke-width="1.6"/>
<rect x="17" y="23" width="8" height="11" fill="#7AB5D9"/>
<rect x="27" y="20" width="8" height="14" fill="#6971D5"/>
<rect x="37" y="10" width="8" height="24" fill="#9B6AD6"/>
<path d="M73 43.5C73 42.2524 72.7672 41.0171 72.3149 39.8645C71.8626 38.7119 71.1997 37.6646 70.364 36.7825C69.5282 35.9003 68.5361 35.2006 67.4442 34.7231C66.3522 34.2457 65.1819 34 64 34V43.5H73Z" fill="#7AB5D9"/>
<path fill-rule="evenodd" clip-rule="evenodd" d="M61.3185 35.9199C59.7899 36.0473 58.3141 36.5607 57.0319 37.4175C55.54 38.4143 54.3772 39.8312 53.6906 41.4889C53.0039 43.1466 52.8243 44.9706 53.1743 46.7304C53.5244 48.4902 54.3884 50.1067 55.6571 51.3755C56.9259 52.6442 58.5424 53.5082 60.3022 53.8583C60.6391 53.9253 60.9784 53.9729 61.3185 54.0012V35.9199ZM62.8305 54.0008C63.7585 53.923 64.674 53.7023 65.5437 53.342C67.2014 52.6554 68.6183 51.4926 69.6151 50.0007C70.612 48.5088 71.144 46.7549 71.144 44.9606H62.8305V54.0008Z" fill="#7093D6"/>
<path fill-rule="evenodd" clip-rule="evenodd" d="M61.3185 35.9199C59.1884 36.0974 57.1799 37.0229 55.6571 38.5457C53.9558 40.2471 53 42.5546 53 44.9606C53 47.3666 53.9558 49.6741 55.6571 51.3755C57.1799 52.8983 59.1884 53.8238 61.3185 54.0013V35.9199Z" fill="#6971D5"/>
</svg>
