<svg width="92" height="64" viewBox="0 0 92 64" fill="none" xmlns="http://www.w3.org/2000/svg">
<rect x="9.5" y="9.5" width="74" height="45" rx="2.5" fill="#EEEEEE" stroke="#D8D8D8"/>
<path d="M37.46 39L36.668 35.722H32.224L31.454 39H27.714L32.312 23.754H36.69L41.288 39H37.46ZM32.84 33.104H36.052L34.446 26.372L32.84 33.104Z" fill="#1B87E6"/>
<path d="M54.5246 30.926C55.5366 31.1167 56.3579 31.4907 56.9886 32.048C57.6339 32.6053 57.9566 33.4413 57.9566 34.556C57.9566 36.184 57.3699 37.3353 56.1966 38.01C55.0379 38.67 53.4099 39 51.3126 39H46.4066V23.754H50.7186C52.8599 23.754 54.4952 24.062 55.6246 24.678C56.7539 25.2793 57.3186 26.2693 57.3186 27.648C57.3186 28.5427 57.0472 29.2687 56.5046 29.826C55.9766 30.3687 55.3166 30.7353 54.5246 30.926ZM50.0146 26.306V29.848H51.3566C52.8819 29.848 53.6446 29.232 53.6446 28C53.6446 27.384 53.4392 26.9513 53.0286 26.702C52.6179 26.438 51.9652 26.306 51.0706 26.306H50.0146ZM51.3346 36.382C52.2879 36.382 53.0066 36.2427 53.4906 35.964C53.9892 35.6707 54.2386 35.1353 54.2386 34.358C54.2386 32.95 53.3586 32.246 51.5986 32.246H50.0146V36.382H51.3346Z" fill="#54A5EC"/>
<path d="M70.2107 23.38C71.164 23.38 72.0074 23.5193 72.7407 23.798C73.4887 24.0767 74.1927 24.4947 74.8527 25.052L73.1367 27.098C72.682 26.746 72.2347 26.482 71.7947 26.306C71.3547 26.13 70.8854 26.042 70.3867 26.042C69.36 26.042 68.546 26.4747 67.9447 27.34C67.358 28.2053 67.0647 29.54 67.0647 31.344C67.0647 33.1187 67.358 34.4387 67.9447 35.304C68.546 36.1547 69.3747 36.58 70.4307 36.58C70.988 36.58 71.494 36.4773 71.9487 36.272C72.4034 36.052 72.8947 35.744 73.4227 35.348L75.0287 37.416C74.4567 37.988 73.76 38.4573 72.9387 38.824C72.132 39.1907 71.2374 39.374 70.2547 39.374C68.8467 39.374 67.622 39.066 66.5807 38.45C65.5394 37.834 64.7254 36.9247 64.1387 35.722C63.5667 34.5047 63.2807 33.0453 63.2807 31.344C63.2807 29.6867 63.574 28.2567 64.1607 27.054C64.762 25.8513 65.5834 24.942 66.6247 24.326C67.6807 23.6953 68.876 23.38 70.2107 23.38Z" fill="#8DC3F2"/>
<path d="M21 20V44" stroke="#9B9B9B" stroke-width="2" stroke-linecap="round"/>
<path d="M17 44H25" stroke="#9B9B9B" stroke-width="2" stroke-linecap="round"/>
<path d="M17 20H25" stroke="#9B9B9B" stroke-width="2" stroke-linecap="round"/>
</svg>
