<svg width="64" height="64" viewBox="0 0 64 64" fill="none" xmlns="http://www.w3.org/2000/svg">
<rect x="4" y="4" width="19" height="19" rx="2" fill="#D8D8D8"/>
<rect x="41" y="26" width="19" height="18" rx="2" fill="#D8D8D8"/>
<rect x="26" y="4" width="34" height="19" rx="2" fill="#545E6B"/>
<path d="M23.2273 45.2276C21.9972 46.4578 20.0027 46.4578 18.7726 45.2276C17.5424 43.9975 17.5424 42.003 18.7726 40.7728C20.0027 39.5427 21.9972 39.5427 23.2273 40.7728C24.4575 42.003 24.4575 43.9975 23.2273 45.2276Z" fill="#545E6B"/>
<path fill-rule="evenodd" clip-rule="evenodd" d="M6 26C4.89543 26 4 26.8954 4 28V58C4 59.1046 4.89543 60 6 60H36C37.1046 60 38 59.1046 38 58V28C38 26.8954 37.1046 26 36 26H6ZM24.2007 37.5719C23.6868 37.2683 23.139 37.044 22.575 36.899V35.125H19.425V36.899C18.861 37.044 18.3132 37.2683 17.7993 37.5719L16.5452 36.3178L14.3178 38.5452L15.5719 39.7993C15.2683 40.3132 15.044 40.861 14.899 41.425H13.125V44.575H14.899C15.044 45.139 15.2683 45.6868 15.5719 46.2007L14.3178 47.4548L16.5452 49.6822L17.7993 48.4281C18.3132 48.7317 18.861 48.956 19.425 49.101V50.875H22.575V49.101C23.139 48.956 23.6868 48.7317 24.2007 48.4281L25.4548 49.6822L27.6822 47.4548L26.4281 46.2007C26.7317 45.6868 26.9559 45.139 27.101 44.575H28.875V41.425H27.101C26.9559 40.861 26.7317 40.3132 26.4281 39.7993L27.6822 38.5452L25.4548 36.3178L24.2007 37.5719Z" fill="#545E6B"/>
</svg>
