<svg width="64" height="64" viewBox="0 0 64 64" fill="none" xmlns="http://www.w3.org/2000/svg">
<path d="M27 46H45.3332C47.9106 46 49.9999 43.9107 49.9999 41.3333V32H58.4445C59.3036 32 60 32.6964 60 33.5555V57.7245C60 58.819 58.8996 59.5713 57.8797 59.1739L47.4391 55.1061C47.259 55.036 47.0675 55 46.8743 55H28.5556C27.6964 55 27 54.3036 27 53.4445V46Z" fill="#D8D8D8"/>
<path fill-rule="evenodd" clip-rule="evenodd" d="M5.55556 4C4.69645 4 4 4.69645 4 5.55556V43.8151C4 44.8845 5.05411 45.6349 6.06461 45.285L15.3027 42.0857C15.4664 42.0289 15.6385 42 15.8117 42H44.4444C45.3036 42 46 41.3036 46 40.4444V5.55556C46 4.69645 45.3036 4 44.4444 4H5.55556ZM29 12.5556C29 11.6964 28.3036 11 27.4444 11H22.5556C21.6964 11 21 11.6964 21 12.5556V35.4444C21 36.3036 21.6964 37 22.5556 37H27.4444C28.3036 37 29 36.3036 29 35.4444V12.5556ZM39.4444 17C40.3036 17 41 17.6964 41 18.5556V35.4444C41 36.3036 40.3036 37 39.4444 37H34.5556C33.6964 37 33 36.3036 33 35.4444V18.5556C33 17.6964 33.6964 17 34.5556 17H39.4444ZM15.4444 25C16.3036 25 17 25.6964 17 26.5556V35.4444C17 36.3036 16.3036 37 15.4444 37H10.5556C9.69645 37 9 36.3036 9 35.4444V26.5556C9 25.6964 9.69645 25 10.5556 25H15.4444Z" fill="#545E6B"/>
</svg>
